<?xml version="1.0" encoding="utf-8"?>
<!-- Generator: Adobe Illustrator 17.1.0, SVG Export Plug-In . SVG Version: 6.00 Build 0)  -->
<!DOCTYPE svg PUBLIC "-//W3C//DTD SVG 1.1//EN" "http://www.w3.org/Graphics/SVG/1.1/DTD/svg11.dtd">
<svg version="1.1" id="Layer_1" xmlns="http://www.w3.org/2000/svg" xmlns:xlink="http://www.w3.org/1999/xlink" x="0px" y="0px"
	 viewBox="0 0 20 20" enable-background="new 0 0 20 20" xml:space="preserve">
<path fill="#FFC189" d="M18.8,0H1.2C0.6,0,0,0.6,0,1.2v17.5C0,19.4,0.6,20,1.2,20h17.5c0.7,0,1.2-0.6,1.2-1.2V1.2
	C20,0.6,19.4,0,18.8,0z M7.5,10c0,0,0.2-2.5,2.5-2.5s2.5,2.5,2.5,2.5s0.1,2.5-2.5,2.5S7.5,10,7.5,10z M17.5,17.5h-15V8.8H5h0.2
	C5.1,9.2,5,9.6,5,10c0,2.8,2.2,5,5,5s5-2.2,5-5c0-0.4-0.1-0.8-0.2-1.2H15h2.5V17.5z M17.5,6.2h-3.8V2.5h3.8V6.2z"/>
</svg>
