<?xml version="1.0" encoding="utf-8"?>
<!-- Generator: Adobe Illustrator 17.1.0, SVG Export Plug-In . SVG Version: 6.00 Build 0)  -->
<!DOCTYPE svg PUBLIC "-//W3C//DTD SVG 1.1//EN" "http://www.w3.org/Graphics/SVG/1.1/DTD/svg11.dtd">
<svg version="1.1" id="Layer_2" xmlns="http://www.w3.org/2000/svg" xmlns:xlink="http://www.w3.org/1999/xlink" x="0px" y="0px"
	 viewBox="221.1 250.4 70 47.3" enable-background="new 221.1 250.4 70 47.3" xml:space="preserve">
<g opacity="0.5">
	<g>
		<path fill="#FFFFFF" d="M289.2,257.1c0,12.3,0,24.7,0,37.2"/>
		<g>
			<path fill="#FFC189" d="M287.3,257.1c0,12.4,0,24.8,0,37.2c0,2.4,3.8,2.4,3.8,0c0-12.4,0-24.8,0-37.2
				C291.1,254.7,287.3,254.7,287.3,257.1L287.3,257.1z"/>
		</g>
	</g>
	<g>
		<path fill="#FFFFFF" d="M289,257.3c-0.3,1.7-1.7,3-2.2,4.7c-0.5,1.7-0.5,3-0.5,4.7c0,3-0.7,8.3,2.7,9.7"/>
		<g>
			<path fill="#FFC189" d="M287.2,256.8c-0.7,2.1-1.9,3.7-2.5,5.9c-0.5,2-0.3,4.3-0.3,6.3c-0.1,3.4,0.4,7.1,3.6,8.9
				c2.1,1.1,4-2.1,1.9-3.2c-2.4-1.3-1.8-5-1.7-7.3c0-1.7,0-3.2,0.4-4.9c0.4-1.6,1.7-3.1,2.2-4.7
				C291.6,255.5,287.9,254.5,287.2,256.8L287.2,256.8z"/>
		</g>
	</g>
	<g>
		<path fill="#FFFFFF" d="M231.9,256.3c0,12.8,0,25.7,0,38.3"/>
		<g>
			<path fill="#FFC189" d="M230,256.3c0,12.8,0,25.6,0,38.3c0,2.4,3.8,2.4,3.8,0c0-12.8,0-25.6,0-38.3
				C233.7,253.9,230,253.9,230,256.3L230,256.3z"/>
		</g>
	</g>
	<g>
		<path fill="#FFFFFF" d="M226.4,256.5c0,3.5,0,6.8,0,10.2"/>
		<g>
			<path fill="#FFC189" d="M224.5,256.5c0,3.4,0,6.8,0,10.2c0,2.4,3.8,2.4,3.8,0c0-3.4,0-6.8,0-10.2
				C228.2,254.1,224.5,254.1,224.5,256.5L224.5,256.5z"/>
		</g>
	</g>
	<g>
		<path fill="#FFFFFF" d="M226.5,267c3.6,0,7.2,0,10.8,0"/>
		<g>
			<path fill="#FFC189" d="M226.5,268.9c3.6,0,7.2,0,10.8,0c2.4,0,2.4-3.8,0-3.8c-3.6,0-7.2,0-10.8,0
				C224.1,265.1,224.1,268.9,226.5,268.9L226.5,268.9z"/>
		</g>
	</g>
	<g>
		<path fill="#FFFFFF" d="M237.4,256.5c0,3.5,0,6.8,0,10.2"/>
		<g>
			<path fill="#FFC189" d="M235.5,256.5c0,3.4,0,6.8,0,10.2c0,2.4,3.8,2.4,3.8,0c0-3.4,0-6.8,0-10.2
				C239.2,254.1,235.5,254.1,235.5,256.5L235.5,256.5z"/>
		</g>
	</g>
	<g>
		<circle fill="#FFC189" cx="260.9" cy="275.6" r="20.2"/>
		<g>
			<path fill="#FFC189" d="M279.3,275.6c-0.3,10.3-8.1,18-18.4,18.4c-10.3,0.3-18-8.6-18.4-18.4c-0.3-10.3,8.6-18,18.4-18.4
				C271.2,256.8,279,265.8,279.3,275.6c0.1,2.4,3.8,2.4,3.8,0c-0.4-12.3-9.8-21.7-22.1-22.1c-12.3-0.4-21.7,10.4-22.1,22.1
				c-0.4,12.3,10.4,21.7,22.1,22.1c12.3,0.4,21.7-10.4,22.1-22.1C283.1,273.1,279.4,273.2,279.3,275.6z"/>
		</g>
	</g>
	<g>
		<circle fill="#FFFFFF" cx="260.9" cy="275.5" r="9.5"/>
		<g>
			<path fill="#FFC189" d="M268.6,275.5c-0.5,9.8-14.7,9.8-15.3,0C252.8,265.6,268,265.7,268.6,275.5c0.1,2.4,3.9,2.4,3.8,0
				c-0.3-6.4-4.9-11-11.4-11.4c-6.4-0.3-11.1,5.5-11.4,11.4c-0.3,6.4,5.5,11.1,11.4,11.4c6.4,0.3,11.1-5.5,11.4-11.4
				C272.4,273.1,268.7,273.1,268.6,275.5z"/>
		</g>
	</g>
</g>
<g>
	<g>
		<g>
			<path fill="#231F20" d="M283.9,254.1c0,12.4,0,24.8,0,37.2c0,2.4,3.8,2.4,3.8,0c0-12.4,0-24.8,0-37.2
				C287.6,251.7,283.9,251.7,283.9,254.1L283.9,254.1z"/>
		</g>
	</g>
	<g>
		<g>
			<path fill="#231F20" d="M283.8,253.8c-0.7,2.1-1.9,3.7-2.5,5.9c-0.5,2-0.3,4.3-0.3,6.3c-0.1,3.4,0.4,7.1,3.6,8.9
				c2.1,1.1,4-2.1,1.9-3.2c-2.4-1.3-1.8-5-1.7-7.3c0-1.7,0-3.2,0.4-4.9c0.4-1.6,1.7-3.1,2.2-4.7
				C288.1,252.5,284.5,251.5,283.8,253.8L283.8,253.8z"/>
		</g>
	</g>
	<g>
		<g>
			<path fill="#231F20" d="M226.6,253.3c0,12.8,0,25.6,0,38.3c0,2.4,3.8,2.4,3.8,0c0-12.8,0-25.6,0-38.3
				C230.3,250.9,226.6,250.9,226.6,253.3L226.6,253.3z"/>
		</g>
	</g>
	<g>
		<g>
			<path fill="#231F20" d="M221.1,253.5c0,3.4,0,6.8,0,10.2c0,2.4,3.8,2.4,3.8,0c0-3.4,0-6.8,0-10.2
				C224.8,251.1,221.1,251.1,221.1,253.5L221.1,253.5z"/>
		</g>
	</g>
	<g>
		<g>
			<path fill="#231F20" d="M223.1,265.9c3.6,0,7.2,0,10.8,0c2.4,0,2.4-3.8,0-3.8c-3.6,0-7.2,0-10.8,0
				C220.7,262.1,220.7,265.9,223.1,265.9L223.1,265.9z"/>
		</g>
	</g>
	<g>
		<g>
			<path fill="#231F20" d="M232.1,253.5c0,3.4,0,6.8,0,10.2c0,2.4,3.8,2.4,3.8,0c0-3.4,0-6.8,0-10.2
				C235.8,251.1,232.1,251.1,232.1,253.5L232.1,253.5z"/>
		</g>
	</g>
	<g>
		<g>
			<path fill="#231F20" d="M275.9,272.6c-0.3,10.3-8.1,18-18.4,18.4c-10.3,0.3-18-8.6-18.4-18.4c-0.3-10.3,8.6-18,18.4-18.4
				C267.8,253.8,275.6,262.8,275.9,272.6c0.1,2.4,3.8,2.4,3.8,0c-0.4-12.3-9.8-21.7-22.1-22.1c-12.3-0.4-21.7,10.4-22.1,22.1
				c-0.4,12.3,10.4,21.7,22.1,22.1c12.3,0.4,21.7-10.4,22.1-22.1C279.7,270.1,276,270.2,275.9,272.6z"/>
		</g>
	</g>
	<g>
		<g>
			<path fill="#231F20" d="M265.1,272.5c-0.5,9.8-14.7,9.8-15.2,0C249.4,262.6,264.6,262.7,265.1,272.5c0.1,2.4,3.9,2.4,3.8,0
				c-0.3-6.4-4.9-11-11.4-11.4c-6.4-0.3-11.1,5.5-11.4,11.4c-0.3,6.4,5.5,11.1,11.4,11.4c6.4,0.3,11.1-5.5,11.4-11.4
				C269,270.1,265.3,270.1,265.1,272.5z"/>
		</g>
	</g>
</g>
</svg>
