<?xml version="1.0" encoding="utf-8"?>
<!-- Generator: Adobe Illustrator 17.1.0, SVG Export Plug-In . SVG Version: 6.00 Build 0)  -->
<!DOCTYPE svg PUBLIC "-//W3C//DTD SVG 1.1//EN" "http://www.w3.org/Graphics/SVG/1.1/DTD/svg11.dtd">
<svg version="1.1" id="Layer_2" xmlns="http://www.w3.org/2000/svg" xmlns:xlink="http://www.w3.org/1999/xlink" x="0px" y="0px"
	 viewBox="225.6 247.6 62.9 53" enable-background="new 225.6 247.6 62.9 53" xml:space="preserve">
<g opacity="0.5">
	<g>
		<g>
			<g>
				<path fill="#FFC189" d="M251.3,255c4.5,0,9.1,0,13.6,0c2.4,0,2.4-3.8,0-3.8c-4.5,0-9.1,0-13.6,0
					C248.8,251.3,248.8,255,251.3,255L251.3,255z"/>
			</g>
		</g>
		<g>
			<g>
				<path fill="#FFC189" d="M264.9,254.7c3.3,1.6,6.4,3.7,9.8,5.1c2.2,0.9,3.2-2.7,1-3.6c-3.1-1.3-5.9-3.2-8.9-4.7
					C264.6,250.4,262.7,253.7,264.9,254.7L264.9,254.7z"/>
			</g>
		</g>
		<g>
			<g>
				<path fill="#FFC189" d="M273.9,259c1.2,5.3,3.4,10.5,4.9,15.8c1.6,5.9,4.2,11.4,6,17.2c0.7,2.3,4.3,1.3,3.6-1
					c-1.6-5.2-3.8-10.2-5.5-15.3c-1.8-5.7-4.1-11.9-5.4-17.7C277,255.7,273.4,256.7,273.9,259L273.9,259z"/>
			</g>
		</g>
		<g>
			<g>
				<path fill="#FFC189" d="M275.6,288.9c0.2,1.9,0.4,4.6,1.8,6c1.2,1.3,2.7,0.8,4.1,0.1c2.2-1,6.3-0.3,6.9-3.5
					c0.5-2.4-3.1-3.4-3.6-1c0.1-0.3,0.3-0.3-0.1-0.1c-0.4,0.1-0.7,0.2-1.1,0.3c-0.8,0.2-1.7,0.3-2.5,0.5c-0.7,0.1-1.3,0.4-1.9,0.7
					c-0.1,0-0.1,0-0.2,0.1c1,0.6,1.3,0.4,0.8-0.4c-0.3-0.9-0.5-1.9-0.6-2.8C279.1,286.5,275.3,286.5,275.6,288.9L275.6,288.9z"/>
			</g>
		</g>
		<g>
			<g>
				<path fill="#FFC189" d="M279.3,289.1c-0.4-5.5-3-10.2-4.6-15.3c-1-3.1-1.5-7.7,0-10.7c0.7-1.4,1.8-3.1,1.8-4.7
					c0-2.4-3.8-2.4-3.8,0c0,1.9-2,4-2.4,6c-0.6,2.3-0.1,5.1,0.2,7.4c0.9,6,4.7,11.2,5.1,17.4C275.7,291.5,279.5,291.5,279.3,289.1
					L279.3,289.1z"/>
			</g>
		</g>
		<g>
			<g>
				<path fill="#FFC189" d="M263.9,255.2c0.8,1.2,1.7,2.5,2.5,3.6c0.7,1,1.7,0.4,0,1.4c-1.3,0.7-2.3,2.4-1.9,3.9
					c0.8,3-1.2,4.2-2.8,6.7c-1.5,2.4-3.6,4.4-4.5,7.1c-0.8,2.3,2.9,3.3,3.6,1c0.9-2.7,4.6-7.4,6.5-9.3c1.4-1.3,2.9-3.2,1.6-5.1
					c-1-1.6,1.7-2.2,2.3-4c0.7-2.2-3.2-5.7-4.2-7.3C265.8,251.3,262.6,253.2,263.9,255.2L263.9,255.2z"/>
			</g>
		</g>
		<g>
			<g>
				<path fill="#FFC189" d="M250.8,251.3c-1.5,0.2-2.8,0.9-4.2,1.7c-1.7,1-3.5,1.9-5.2,3c-2.1,1.3-0.2,4.5,1.9,3.2
					c1.4-0.9,2.9-1.6,4.3-2.4c1.4-0.8,2.6-1.6,4.2-1.8C254.2,254.6,253.2,251,250.8,251.3L250.8,251.3z"/>
			</g>
		</g>
		<g>
			<g>
				<path fill="#FFC189" d="M247.8,254.4c-0.9,1.6-3.1,4.3-2.2,6.2c0.4,0.9,1,1.4,1.9,2c1.7,1.2-0.1,1.5-0.3,2.8
					c-1.1,6.8,8.6,8.2,9.3,14.3c0.3,2.4,4.1,2.4,3.8,0c-0.6-5-4.7-7.7-8.1-11c-2.6-2.5,1.1-3.5,0.2-5.9c-1.1-2.9-3.2-3.1-1.3-6.4
					C252.2,254.2,249,252.3,247.8,254.4L247.8,254.4z"/>
			</g>
		</g>
		<g>
			<g>
				<path fill="#FFC189" d="M256.6,279.5c0,6.4,0,12.8,0,19.1c0,2.4,3.8,2.4,3.8,0c0-6.4,0-12.8,0-19.1
					C260.4,277.1,256.6,277.1,256.6,279.5L256.6,279.5z"/>
			</g>
		</g>
		<g>
			<g>
				<path fill="#FFC189" d="M261.6,253c-0.8,3.3-1,6.7-1.8,10c-0.9,4.1-2.2,8.1-2.8,12.3c-0.3,2.4,3.3,3.4,3.6,1
					c0.5-3.7,1.6-7.3,2.5-10.9c0.9-3.8,1.1-7.7,2.1-11.5C265.9,251.7,262.2,250.7,261.6,253L261.6,253z"/>
			</g>
		</g>
		<g>
			<g>
				<path fill="#FFC189" d="M251.2,253.9c1,3.3,2.2,6.3,2.7,9.8c0.6,3.9,2.1,7.8,3.7,11.4c1,2.2,4.2,0.3,3.2-1.9
					c-1.5-3.4-2.6-6.9-3.3-10.5c-0.3-1.7-0.5-3.4-0.9-5.2c-0.4-1.6-1.3-3-1.8-4.6C254.1,250.6,250.5,251.5,251.2,253.9L251.2,253.9z
					"/>
			</g>
		</g>
		<g>
			<g>
				<path fill="#FFC189" d="M244.6,300.5c9.1,0,18.1,0,27.2,0c2.4,0,2.4-3.8,0-3.8c-9.1,0-18.1,0-27.2,0
					C242.2,296.8,242.2,300.5,244.6,300.5L244.6,300.5z"/>
			</g>
		</g>
		<g>
			<g>
				<path fill="#FFC189" d="M270,273.2c0,8.5,0,17,0,25.5c0,2.4,3.8,2.4,3.8,0c0-8.5,0-17,0-25.5C273.8,270.8,270,270.8,270,273.2
					L270,273.2z"/>
			</g>
		</g>
		<g>
			<g>
				<path fill="#FFC189" d="M270,269.7c0,1.2,0,2.3,0,3.5c0,2.4,3.8,2.4,3.8,0c0-1.2,0-2.3,0-3.5C273.8,267.3,270,267.3,270,269.7
					L270,269.7z"/>
			</g>
		</g>
		<g>
			<g>
				<path fill="#FFC189" d="M242.3,269c0,9.9,0,19.8,0,29.7c0,2.4,3.8,2.4,3.8,0c0-9.9,0-19.8,0-29.7
					C246.1,266.6,242.3,266.6,242.3,269L242.3,269z"/>
			</g>
		</g>
		<g>
			<g>
				<path fill="#FFC189" d="M240.1,258.4c0.3,1.8,1.3,3.3,1.8,5c0.7,2.4,0.4,5.1,0.4,7.5c0,2.4,3.8,2.4,3.8,0c0-2.3,0.1-4.7-0.3-7
					c-0.4-2.3-1.8-4.3-2.1-6.6C243.3,255,239.7,256,240.1,258.4L240.1,258.4z"/>
			</g>
		</g>
		<g>
			<g>
				<path fill="#FFC189" d="M229.6,286.6c-0.5,2-2.1,5.4,0.3,6.8c1.5,0.9,6.6,3.5,8.4,2.3c2-1.5,2.5-4.1,3.1-6.4
					c1.2-4.4,2-9.3,4.5-13.2c1.3-2-1.9-3.9-3.2-1.9c-2.7,4.2-3.6,9.3-4.9,14.1c-0.2,0.8-0.4,1.6-0.6,2.3c-0.5,1.9-0.3,1.5-1.7,0.9
					c-1.1-0.5-2.3-0.9-3.4-1.3c0.4,1,0.6,0.9,0.6-0.5c0.2-0.7,0.4-1.5,0.6-2.2C233.8,285.3,230.2,284.3,229.6,286.6L229.6,286.6z"/>
			</g>
		</g>
		<g>
			<g>
				<path fill="#FFC189" d="M239.8,258c-0.9,2.2-1.1,4-1.6,6.3c-0.5,2.4-2.1,4.7-3,7c-1.7,4.2-1.7,11.2-5,14.6
					c-1.7,1.8,1,4.4,2.7,2.7c2.8-3,3.5-8.1,4.9-11.9c1.2-3.2,2-6.4,3.3-9.6c1.1-2.6,1.2-5.5,2.3-8.2
					C244.3,256.8,240.6,255.8,239.8,258L239.8,258z"/>
			</g>
		</g>
		<g>
			<g>
				<path fill="#FFC189" d="M248.7,288.6c1.9,0,3.8,0,5.7,0c2.4,0,2.4-3.8,0-3.8c-1.9,0-3.8,0-5.7,0
					C246.3,284.8,246.3,288.6,248.7,288.6L248.7,288.6z"/>
			</g>
		</g>
		<g>
			<g>
				<path fill="#FFC189" d="M262.6,288.6c1.9,0,3.8,0,5.7,0c2.4,0,2.4-3.8,0-3.8c-1.9,0-3.8,0-5.7,0
					C260.2,284.8,260.2,288.6,262.6,288.6L262.6,288.6z"/>
			</g>
		</g>
	</g>
	<g>
		<g>
			<path fill="#FFC189" d="M272.3,262.7c0,2.7,0.2,5.4,0.6,8.1c0.5,3.5,2.5,6.5,3.5,9.9c1.2,4.2,0,10.8,5.4,11.4
				c9.2,1.2-3.5-24.9-4.5-27.9c-1-3-5.8-1.7-4.8,1.3c1.4,4.2,3.5,8,4.9,12.2c0.7,2.1,1.3,4.3,1.9,6.5c0.2,0.8,0.5,1.7,0.8,2.5
				c0.1,1.1,0.4,1.2,0.8,0.3c0.7,0.4,1.4,0.8,2.2,1.2c-0.8-1.5-0.7-4.1-1-5.8c-0.4-2-1-4-1.7-6c-1.8-4.8-2.8-8.5-2.9-13.7
				C277.3,259.5,272.3,259.5,272.3,262.7L272.3,262.7z"/>
		</g>
	</g>
	<g>
		<g>
			<path fill="#FFC189" d="M268.7,258.2c0,5.2-2.8,9.4-2.4,14.6c0.5,7.2,1.2,14.6,1.1,21.9c0.6-0.8,1.2-1.6,1.8-2.4
				c-3.4,1.3-6.9,0.6-10.3,0.3c-2.7-0.3-8.4,1.2-9.6-1.6c-1.2-2.7-5.2-0.7-4.6,1.9c0.3,0.9,0.4,1.9,0.4,2.8c1.6-0.2,3.3-0.4,4.9-0.7
				c-0.6-1.5-1-2.9-1.2-4.5c0.1,0.6,4.3,1.2,5.1,1.4c4.4,1.1,9-0.4,13.3,0.7c-0.5-1.2-1-2.4-1.5-3.7c-1.4,2.2-8,1.3-10.1,1.2
				c-1.5-0.1-3.1-0.2-4.6-0.3c1.1,0-1.7-2.8-1.5-3.4c-0.6,0.6-1.2,1.2-1.7,1.7c3.8-1.2,9.6-0.2,13.6,0c3.2,0.1,6.7,1,9.5-0.9
				c1.4-1,1.8-3.2,0.6-4.5c-2.1-2.3-4.9-2.5-7.9-2.5c-4.1-0.1-8.2,0.2-12.4,0.2c-1.4-0.2-2,0.6-1.7,2.6c0.7,0,1.4,0,2,0
				c2.5,0,4.9,0.4,7.4,0.4c2.7,0,6.7-0.6,8.6-2.7c2.4-2.6,2.3-5.5,2.2-9c-0.1-2.1-2-2.9-3.8-2.2c-3.1,1.3-4.8,4.5-6.4,7.4
				c-0.9,1.7,0.2,3.8,2.2,3.8c0.9,0,1.4-0.1,2.2-0.4c2.4-1,2.4-5.2-0.7-4.9c-2.8,0.2-5.5,0.6-8.3,0.1c-1.9-0.4-6.7-4.9-5.9-7.2
				c-1.2,0.5-2.4,1-3.7,1.5c1.7,1.3,6.5,4.3,7.1,6.5c0.6-1,1.2-2.1,1.7-3.1c-4.1,1.1-6.1,0.3-8.9,4c1.5,0.2,3,0.4,4.6,0.6
				c-1.6-6.6,1.1-14.1-2.1-20.2c-0.9-1.7-3.4-1.6-4.3,0c-3.7,6.2-3.7,13.7-6.6,20.2c-1.4,3.1-2.5,6.3-4,9.4c-0.9,1.8-1.1,3.3,0,5
				c2.3,3.6,5.5,0,6.5-2.4c2.4-5.7,2.1-11.8,3.3-17.6c0.6-3.1-4.2-4.5-4.8-1.3c-0.8,3.9-0.7,7.9-1.7,11.8c-0.4,1.4-0.7,2.8-1.1,4.2
				c-0.1,0.5-0.3,1-0.5,1.5c1.1,0.1,2.2,0.1,3.2,0.2c0.4-0.7,0.8-1.5,1.2-2.3c2-3.9,3.5-8.2,5-12.2c1.7-4.6,1.4-9.6,3.9-14
				c-1.4,0-2.9,0-4.3,0c1.5,2.9,0.8,6.8,0.7,9.9c-0.1,3.1,0.1,6.1,0.8,9.1c0.6,2.3,3.4,2.2,4.6,0.6c1.1-1.5,4.3-1.2,5.9-1.7
				c1.3-0.4,2.1-1.8,1.7-3.1c-1.1-4-6.3-7.1-9.4-9.5c-1.4-1-3.2,0.1-3.7,1.5c-1.5,4.4,2.1,8.2,5.1,11.1c3.6,3.5,9.4,2.8,13.9,2.4
				c-0.2-1.6-0.4-3.3-0.7-4.9c-0.3,0.1-0.6,0.2-0.9,0.2c0.7,1.3,1.4,2.5,2.2,3.8c1.1-2.2,2.2-4.6,4.6-5.6c-1.3-0.7-2.5-1.4-3.8-2.2
				c0.5,13.9-20.2,0.4-20.2,9.7c0,3.6,3.9,4.2,6.6,4c1,0,15.8,0.1,15.9-0.3c0.4-0.7,0.8-1.4,1.2-2.2c-4.3,2.9-29.4-5.5-22.8,6.8
				c3,5.6,5.8,5,11.8,5.3c4.1,0.2,10.2,0.1,12.6-3.7c0.9-1.4,0-3.3-1.5-3.7c-3.7-0.9-7.3-0.4-11.1-0.4c-2.8,0-5.7-1.2-8.5-1.6
				c-6.5-0.7-5.5,6.5-3.9,10.5c1,2.6,4.7,2.2,4.9-0.7c0.1-1.5-0.2-2.7-0.5-4.2c-1.5,0.6-3,1.3-4.6,1.9c2,4.4,5,3.9,9.5,3.9
				c5.3,0,11,1.7,16.1-0.3c1.1-0.4,1.8-1.2,1.8-2.4c0.1-6.2,0.1-13.1-0.7-19.2c-0.3-2.1-0.6-4.2-0.3-6.3c0.2-1.5,1.3-2.7,1.7-4.2
				c0.7-2.2,0.6-4.4,0.7-6.7C273.7,255,268.7,255,268.7,258.2L268.7,258.2z"/>
		</g>
	</g>
</g>
<g>
	<g>
		<g>
			<path fill="#231F20" d="M248.3,251.3c4.5,0,9.1,0,13.6,0c2.4,0,2.4-3.8,0-3.8c-4.5,0-9.1,0-13.6,0
				C245.8,247.6,245.8,251.3,248.3,251.3L248.3,251.3z"/>
		</g>
	</g>
	<g>
		<g>
			<path fill="#231F20" d="M261.9,251c3.3,1.6,6.4,3.7,9.8,5.1c2.2,0.9,3.2-2.7,1-3.6c-3.1-1.3-5.9-3.2-8.9-4.7
				C261.6,246.7,259.7,250,261.9,251L261.9,251z"/>
		</g>
	</g>
	<g>
		<g>
			<path fill="#231F20" d="M270.9,255.3c1.2,5.3,3.4,10.5,4.9,15.8c1.6,5.9,4.2,11.4,6,17.2c0.7,2.3,4.3,1.3,3.6-1
				c-1.6-5.2-3.8-10.2-5.5-15.3c-1.8-5.7-4.1-11.9-5.4-17.7C274,252,270.4,253,270.9,255.3L270.9,255.3z"/>
		</g>
	</g>
	<g>
		<g>
			<path fill="#231F20" d="M272.6,285.2c0.2,1.9,0.4,4.6,1.8,6c1.2,1.3,2.7,0.8,4.1,0.1c2.2-1,6.3-0.3,6.9-3.5
				c0.5-2.4-3.1-3.4-3.6-1c0.1-0.3,0.3-0.3-0.1-0.1c-0.4,0.1-0.7,0.2-1.1,0.3c-0.8,0.2-1.7,0.3-2.5,0.5c-0.7,0.1-1.3,0.4-1.9,0.7
				c-0.1,0-0.1,0-0.2,0.1c1,0.6,1.3,0.4,0.8-0.4c-0.3-0.9-0.5-1.9-0.6-2.8C276.1,282.9,272.3,282.8,272.6,285.2L272.6,285.2z"/>
		</g>
	</g>
	<g>
		<g>
			<path fill="#231F20" d="M276.3,285.4c-0.4-5.5-3-10.2-4.6-15.3c-1-3.1-1.5-7.7,0-10.7c0.7-1.4,1.8-3.1,1.8-4.7
				c0-2.4-3.8-2.4-3.8,0c0,1.9-2,4-2.4,6c-0.6,2.3-0.1,5.1,0.2,7.4c0.9,6,4.7,11.2,5.1,17.4C272.7,287.8,276.5,287.8,276.3,285.4
				L276.3,285.4z"/>
		</g>
	</g>
	<g>
		<g>
			<path fill="#231F20" d="M260.9,251.5c0.8,1.2,1.7,2.5,2.5,3.6c0.7,1,1.7,0.4,0,1.4c-1.3,0.7-2.3,2.4-1.9,3.9
				c0.8,3-1.2,4.2-2.8,6.7c-1.5,2.4-3.6,4.4-4.5,7.1c-0.8,2.3,2.9,3.3,3.6,1c0.9-2.7,4.6-7.4,6.5-9.3c1.4-1.3,2.9-3.2,1.6-5.1
				c-1-1.6,1.7-2.2,2.3-4c0.7-2.2-3.2-5.7-4.2-7.3C262.8,247.6,259.6,249.5,260.9,251.5L260.9,251.5z"/>
		</g>
	</g>
	<g>
		<g>
			<path fill="#231F20" d="M247.8,247.7c-1.5,0.2-2.8,0.9-4.2,1.7c-1.7,1-3.5,1.9-5.2,3c-2.1,1.3-0.2,4.5,1.9,3.2
				c1.4-0.9,2.9-1.6,4.3-2.4c1.4-0.8,2.6-1.6,4.2-1.8C251.2,250.9,250.2,247.3,247.8,247.7L247.8,247.7z"/>
		</g>
	</g>
	<g>
		<g>
			<path fill="#231F20" d="M244.8,250.7c-0.9,1.6-3.1,4.3-2.2,6.2c0.4,0.9,1,1.4,1.9,2c1.7,1.2-0.1,1.5-0.3,2.8
				c-1.1,6.8,8.6,8.2,9.3,14.3c0.3,2.4,4.1,2.4,3.7,0c-0.6-5-4.7-7.7-8.1-11c-2.6-2.5,1.1-3.5,0.2-5.9c-1.1-2.9-3.2-3.1-1.3-6.4
				C249.2,250.5,246,248.6,244.8,250.7L244.8,250.7z"/>
		</g>
	</g>
	<g>
		<g>
			<path fill="#231F20" d="M253.6,275.9c0,6.4,0,12.8,0,19.1c0,2.4,3.8,2.4,3.8,0c0-6.4,0-12.8,0-19.1
				C257.4,273.4,253.6,273.4,253.6,275.9L253.6,275.9z"/>
		</g>
	</g>
	<g>
		<g>
			<path fill="#231F20" d="M258.6,249.3c-0.8,3.3-1,6.7-1.8,10c-0.9,4.1-2.2,8.1-2.8,12.3c-0.3,2.4,3.3,3.4,3.6,1
				c0.5-3.7,1.6-7.3,2.5-10.9c0.9-3.8,1.1-7.7,2.1-11.5C262.9,248,259.2,247,258.6,249.3L258.6,249.3z"/>
		</g>
	</g>
	<g>
		<g>
			<path fill="#231F20" d="M248.2,250.2c1,3.3,2.2,6.3,2.7,9.8c0.6,3.9,2.1,7.8,3.7,11.4c1,2.2,4.2,0.3,3.2-1.9
				c-1.5-3.4-2.6-6.9-3.3-10.5c-0.3-1.7-0.5-3.4-0.9-5.2c-0.4-1.6-1.3-3-1.8-4.6C251.1,246.9,247.5,247.9,248.2,250.2L248.2,250.2z"
				/>
		</g>
	</g>
	<g>
		<g>
			<path fill="#231F20" d="M241.6,296.9c9.1,0,18.1,0,27.2,0c2.4,0,2.4-3.8,0-3.8c-9.1,0-18.1,0-27.2,0
				C239.2,293.1,239.2,296.9,241.6,296.9L241.6,296.9z"/>
		</g>
	</g>
	<g>
		<g>
			<path fill="#231F20" d="M267,269.5c0,8.5,0,17,0,25.5c0,2.4,3.8,2.4,3.8,0c0-8.5,0-17,0-25.5C270.8,267.1,267,267.1,267,269.5
				L267,269.5z"/>
		</g>
	</g>
	<g>
		<g>
			<path fill="#231F20" d="M267,266c0,1.2,0,2.3,0,3.5c0,2.4,3.8,2.4,3.8,0c0-1.2,0-2.3,0-3.5C270.8,263.6,267,263.6,267,266
				L267,266z"/>
		</g>
	</g>
	<g>
		<g>
			<path fill="#231F20" d="M239.3,265.3c0,9.9,0,19.8,0,29.7c0,2.4,3.8,2.4,3.8,0c0-9.9,0-19.8,0-29.7
				C243.1,262.9,239.3,262.9,239.3,265.3L239.3,265.3z"/>
		</g>
	</g>
	<g>
		<g>
			<path fill="#231F20" d="M237.1,254.7c0.3,1.8,1.3,3.3,1.8,5c0.7,2.4,0.4,5.1,0.4,7.5c0,2.4,3.8,2.4,3.8,0c0-2.3,0.1-4.7-0.3-7
				c-0.4-2.3-1.8-4.3-2.1-6.6C240.3,251.3,236.7,252.3,237.1,254.7L237.1,254.7z"/>
		</g>
	</g>
	<g>
		<g>
			<path fill="#231F20" d="M226.6,283c-0.5,2-2.1,5.4,0.3,6.8c1.5,0.9,6.6,3.5,8.4,2.3c2-1.5,2.5-4.1,3.1-6.4
				c1.2-4.4,2-9.3,4.5-13.2c1.3-2-1.9-3.9-3.2-1.9c-2.7,4.2-3.6,9.3-4.9,14.1c-0.2,0.8-0.4,1.6-0.6,2.3c-0.5,1.9-0.3,1.5-1.7,0.9
				c-1.1-0.5-2.3-0.9-3.4-1.3c0.4,1,0.6,0.9,0.6-0.5c0.2-0.7,0.4-1.5,0.6-2.2C230.8,281.6,227.2,280.6,226.6,283L226.6,283z"/>
		</g>
	</g>
	<g>
		<g>
			<path fill="#231F20" d="M236.8,254.3c-0.9,2.2-1.1,4-1.6,6.3c-0.5,2.4-2.1,4.7-3,7c-1.7,4.2-1.7,11.2-5,14.6
				c-1.7,1.8,1,4.4,2.7,2.7c2.8-3,3.5-8.1,4.9-11.9c1.2-3.2,2-6.4,3.3-9.6c1.1-2.6,1.2-5.5,2.3-8.2
				C241.3,253.1,237.6,252.1,236.8,254.3L236.8,254.3z"/>
		</g>
	</g>
	<g>
		<g>
			<path fill="#231F20" d="M245.7,284.9c1.9,0,3.8,0,5.7,0c2.4,0,2.4-3.8,0-3.8c-1.9,0-3.8,0-5.7,0
				C243.3,281.1,243.3,284.9,245.7,284.9L245.7,284.9z"/>
		</g>
	</g>
	<g>
		<g>
			<path fill="#231F20" d="M259.6,284.9c1.9,0,3.8,0,5.7,0c2.4,0,2.4-3.8,0-3.8c-1.9,0-3.8,0-5.7,0
				C257.2,281.1,257.2,284.9,259.6,284.9L259.6,284.9z"/>
		</g>
	</g>
</g>
</svg>
