<?xml version="1.0" encoding="utf-8"?>
<!-- Generator: Adobe Illustrator 17.1.0, SVG Export Plug-In . SVG Version: 6.00 Build 0)  -->
<!DOCTYPE svg PUBLIC "-//W3C//DTD SVG 1.1//EN" "http://www.w3.org/Graphics/SVG/1.1/DTD/svg11.dtd">
<svg version="1.1" id="Layer_1" xmlns="http://www.w3.org/2000/svg" xmlns:xlink="http://www.w3.org/1999/xlink" x="0px" y="0px"
	 viewBox="0 0 16 12" enable-background="new 0 0 16 12" xml:space="preserve">
<path id="Mail_4_x2C__Envelope_4" fill="#FFC189" d="M10.9,7.3l-2.5,2c-0.2,0.2-0.6,0.2-0.8,0l-2.5-2c-0.2-0.2-0.6-0.2-0.8,0L0,10.7
	V11c0,0.4,0.4,1,1,1h14c0.6,0,1-0.6,1-1v-0.3l-4.3-3.4C11.5,7.1,11.1,7.1,10.9,7.3z M13.1,6.1l2.5,2C15.8,8.3,16,8.2,16,8V3.7
	c0-0.3-0.2-0.4-0.4-0.2l-2.5,2C12.9,5.7,12.9,6,13.1,6.1z M1,0C0.4,0,0,0.6,0,1l7.6,6c0.2,0.2,0.6,0.2,0.8,0L16,1c0-0.4-0.4-1-1-1H1
	z M0,3.7V8c0,0.3,0.2,0.4,0.4,0.2l2.5-2c0.2-0.2,0.2-0.5,0-0.6l-2.5-2C0.2,3.3,0,3.4,0,3.7z"/>
</svg>
