<?xml version="1.0" encoding="utf-8"?>
<!-- Generator: Adobe Illustrator 17.1.0, SVG Export Plug-In . SVG Version: 6.00 Build 0)  -->
<!DOCTYPE svg PUBLIC "-//W3C//DTD SVG 1.1//EN" "http://www.w3.org/Graphics/SVG/1.1/DTD/svg11.dtd">
<svg version="1.1" id="Layer_1" xmlns="http://www.w3.org/2000/svg" xmlns:xlink="http://www.w3.org/1999/xlink" x="0px" y="0px"
	 viewBox="0 0 77.8 71.2" enable-background="new 0 0 77.8 71.2" xml:space="preserve">
<g opacity="0.4">
	<path fill="#333333" d="M6.5,13h64.8c3.6,0,6.5-2.9,6.5-6.5S74.9,0,71.3,0H6.5C2.9,0,0,2.9,0,6.5S2.9,13,6.5,13z"/>
	<path fill="#333333" d="M71.3,29.1H6.5C2.9,29.1,0,32,0,35.6c0,3.6,2.9,6.5,6.5,6.5h64.8c3.6,0,6.5-2.9,6.5-6.5
		S74.9,29.1,71.3,29.1z"/>
	<path fill="#333333" d="M71.3,58.2H6.5c-3.6,0-6.5,2.9-6.5,6.5c0,3.6,2.9,6.5,6.5,6.5h64.8c3.6,0,6.5-2.9,6.5-6.5
		C77.8,61.1,74.9,58.2,71.3,58.2z"/>
</g>
</svg>
