<?xml version="1.0" encoding="utf-8"?>
<!-- Generator: Adobe Illustrator 17.1.0, SVG Export Plug-In . SVG Version: 6.00 Build 0)  -->
<!DOCTYPE svg PUBLIC "-//W3C//DTD SVG 1.1//EN" "http://www.w3.org/Graphics/SVG/1.1/DTD/svg11.dtd">
<svg version="1.1" id="Layer_2" xmlns="http://www.w3.org/2000/svg" xmlns:xlink="http://www.w3.org/1999/xlink" x="0px" y="0px"
	 viewBox="230.1 231.6 59.1 59.3" enable-background="new 230.1 231.6 59.1 59.3" xml:space="preserve">
<g opacity="0.5">
	<g>
		<g>
			<g>
				<path fill="#FFC189" d="M255.4,252.1c-3-1.1-5.9-0.3-8.7-1.9c-1.2-0.7-2.8-0.3-3.4,0.9c-1.5,2.7-3,5.3-4.4,8
					c1.4,0.8,2.9,1.7,4.3,2.5c2.6-5.3,5.2-10.6,7.8-15.9c-0.9,0.4-1.9,0.8-2.8,1.1c3.1,1.1,6.1,2.2,9.2,3.3c-0.6-1-1.2-2.1-1.7-3.1
					c-1.4,5.7-2.8,11.5-4.3,17.2c-0.8,3.2,3.7,4.3,4.8,1.3c0,0,0-0.1,0-0.1c1.1-3.1-3.7-4.3-4.8-1.3c-1.2,3-2.2,4.8-5.6,3.9
					c-3.1-0.8-3.2-4.4-2.4-6.9c-1.6,0-3.2,0-4.8,0c0.9,2.4,1.8,4.8,2.7,7.2c0.6,1.7,0.9,2,0.4,3.3c-1.3,3.6-2.6,7.1-3.9,10.7
					c-0.3,1,0.2,2.4,1.1,2.8c1.7,0.8,3.3,1.5,5,2.3c0.6-1.5,1.3-3,1.9-4.6c-3.5-1.3-7.1-2.6-10.6-3.9c-3-1.1-4.3,3.7-1.3,4.8
					c3.5,1.3,7.1,2.6,10.6,3.9c2.7,1,4.5-3.4,1.9-4.6c-1.7-0.8-3.3-1.5-5-2.3c0.4,0.9,0.8,1.9,1.1,2.8c1.6-4.3,5.7-10.7,4-15.2
					c-1.1-2.9-2.1-5.8-3.2-8.6c-0.9-2.3-4-2.4-4.8,0c-1.9,5.7,0.4,10.8,5.9,13c6.3,2.6,9.7-2.3,11.7-7.4c-1.6-0.4-3.2-0.9-4.8-1.3
					c0,0,0,0.1,0,0.1c1.6,0.4,3.2,0.9,4.8,1.3c1.4-5.7,2.8-11.5,4.3-17.2c0.3-1.4-0.4-2.6-1.7-3.1c-3.1-1.1-6.1-2.2-9.2-3.3
					c-1-0.4-2.4,0.2-2.8,1.1c-2.6,5.3-5.2,10.6-7.8,15.9c-1.4,2.9,2.7,5.4,4.3,2.5c1.5-2.7,3-5.3,4.4-8c-1.1,0.3-2.3,0.6-3.4,0.9
					c3.4,1.9,6.3,1.1,9.9,2.4C257.1,258,258.4,253.1,255.4,252.1L255.4,252.1z"/>
			</g>
		</g>
		
			<rect x="242.3" y="253.4" transform="matrix(0.9401 0.3409 -0.3409 0.9401 104.0295 -68.8724)" fill="#FFC189" stroke="#FFC189" stroke-miterlimit="10" width="11.3" height="16.3"/>
	</g>
	<g>
		<g>
			<g>
				<path fill="#FFC189" d="M267.2,259.9c3.6-1.3,6.4-0.4,9.9-2.4c-1.1-0.3-2.3-0.6-3.4-0.9c1.5,2.7,3,5.3,4.4,8
					c1.6,2.8,5.7,0.3,4.3-2.5c-2.6-5.3-5.2-10.6-7.8-15.9c-0.5-0.9-1.8-1.5-2.8-1.1c-3.1,1.1-6.1,2.2-9.2,3.3
					c-1.3,0.5-2.1,1.7-1.7,3.1c1.4,5.7,2.9,11.5,4.3,17.2c1.6-0.4,3.2-0.9,4.8-1.3c0,0,0-0.1,0-0.1c-1.6,0.4-3.2,0.9-4.8,1.3
					c2.2,5.7,5.2,9.2,11.7,7.4c5.7-1.6,7.6-7.9,5.9-13c-0.8-2.4-4-2.3-4.8,0c-1.1,2.9-2.1,5.8-3.2,8.6c-1.7,4.6,2.5,10.9,4,15.2
					c0.4-0.9,0.8-1.9,1.1-2.8c-1.7,0.8-3.3,1.5-5,2.3c-2.6,1.2-0.7,5.5,1.9,4.6c3.5-1.3,7.1-2.6,10.6-3.9c3-1.1,1.7-5.9-1.3-4.8
					c-3.5,1.3-7.1,2.6-10.6,3.9c0.6,1.5,1.3,3,1.9,4.6c1.7-0.8,3.3-1.5,5-2.3c0.9-0.4,1.5-1.9,1.1-2.8c-1.1-3-2.2-5.9-3.2-8.9
					c-0.9-2.5-1.4-2.1-0.5-4.3c1-2.6,2-5.3,2.9-7.9c-1.6,0-3.2,0-4.8,0c0.9,2.7,0.6,5.7-2.4,6.9c-3.2,1.3-4.5-1.2-5.6-3.9
					c-1.2-2.9-5.9-1.7-4.8,1.3c0,0,0,0.1,0,0.1c1.1,3,5.6,1.8,4.8-1.3c-1.4-5.7-2.9-11.5-4.3-17.2c-0.6,1-1.2,2.1-1.7,3.1
					c3.1-1.1,6.1-2.2,9.2-3.3c-0.9-0.4-1.9-0.8-2.8-1.1c2.6,5.3,5.2,10.6,7.8,15.9c1.4-0.8,2.9-1.7,4.3-2.5c-1.5-2.7-3-5.3-4.4-8
					c-0.7-1.2-2.3-1.6-3.4-0.9c-2.7,1.6-5.7,0.8-8.7,1.9C262.9,256.2,264.2,261,267.2,259.9L267.2,259.9z"/>
			</g>
		</g>
		
			<rect x="267.7" y="256.4" transform="matrix(-0.9396 0.3424 -0.3424 -0.9396 620.7416 419.5807)" fill="#FFC189" stroke="#FFC189" stroke-miterlimit="10" width="11.3" height="16.3"/>
	</g>
	<g>
		<g>
			<path fill="#FFC189" d="M259.8,235.5c-0.1,1.8-0.3,3.7-0.4,5.5c-0.1,1.4,1.2,2.5,2.5,2.5c1.4,0,2.4-1.1,2.5-2.5
				c0.1-1.8,0.3-3.7,0.4-5.5c0.1-1.4-1.2-2.5-2.5-2.5C260.9,233,259.9,234.1,259.8,235.5L259.8,235.5z"/>
		</g>
	</g>
	<g>
		<g>
			<path fill="#FFC189" d="M265.2,238.2c-0.7,0.8-1.5,1.7-2.2,2.5c-0.9,1-1,2.5,0,3.5c0.9,0.9,2.6,1,3.5,0c0.7-0.8,1.5-1.7,2.2-2.5
				c0.9-1,1-2.5,0-3.5C267.8,237.3,266.1,237.2,265.2,238.2L265.2,238.2z"/>
		</g>
	</g>
	<g>
		<g>
			<path fill="#FFC189" d="M254.9,240.3c0.6,0.9,1.2,1.9,1.8,2.8c0.8,1.1,2.2,1.6,3.4,0.9c1.1-0.7,1.7-2.3,0.9-3.4
				c-0.6-0.9-1.2-1.9-1.8-2.8c-0.8-1.1-2.2-1.6-3.4-0.9C254.7,237.5,254.2,239.1,254.9,240.3L254.9,240.3z"/>
		</g>
	</g>
	<g>
		<g>
			<path fill="#FFFFFF" d="M249.6,266.4c-0.4,0.9-1.2,1.5-2.2,0.9c-1.4-0.8-2.7,1.3-1.3,2.2c2,1.2,4.7,0.3,5.6-1.8
				c0.3-0.6,0.2-1.3-0.4-1.7C250.8,265.6,249.9,265.8,249.6,266.4L249.6,266.4z"/>
		</g>
	</g>
	<g>
		<g>
			<path fill="#FFFFFF" d="M277.9,267.4c0.4,0.7,0.3,1.7-0.5,2.1c-0.6,0.3-1.1,0.8-0.9,1.5c0.2,0.6,0.9,1.1,1.5,0.9
				c2.3-0.9,3.3-3.5,2-5.7C279.3,264.7,277.1,265.9,277.9,267.4L277.9,267.4z"/>
		</g>
	</g>
</g>
<g>
	<g>
		<g>
			<g>
				<path fill="#231F20" d="M252.6,250.7c-3-1.1-6-0.3-8.8-1.9c-0.9-0.5-2.1-0.2-2.6,0.7c-1.5,2.7-3,5.3-4.4,8
					c1.1,0.6,2.2,1.3,3.2,1.9c2.6-5.3,5.2-10.6,7.8-15.9c-0.7,0.3-1.4,0.6-2.1,0.9c3.1,1.1,6.1,2.2,9.2,3.3
					c-0.4-0.8-0.9-1.5-1.3-2.3c-1.4,5.7-2.8,11.5-4.3,17.2c-0.6,2.4,2.8,3.2,3.6,1c0,0,0-0.1,0-0.1c0.8-2.3-2.7-3.2-3.6-1
					c-1.3,3.3-2.7,5.3-6.3,4.3c-3.4-0.9-3.8-4.8-2.8-7.7c-1.2,0-2.4,0-3.6,0c0.9,2.4,1.8,4.8,2.7,7.2c0.6,1.8,1,2.1,0.4,3.7
					c-1.3,3.6-2.6,7.1-3.9,10.7c-0.3,0.7,0.1,1.8,0.9,2.1c1.7,0.8,3.3,1.5,5,2.3c0.5-1.1,1-2.3,1.4-3.4c-3.5-1.3-7.1-2.6-10.6-3.9
					c-2.3-0.8-3.3,2.8-1,3.6c3.5,1.3,7.1,2.6,10.6,3.9c2,0.7,3.4-2.6,1.4-3.4c-1.7-0.8-3.3-1.5-5-2.3c0.3,0.7,0.6,1.4,0.9,2.1
					c1.5-4.2,5.6-10.5,4-14.9c-1.1-2.9-2.1-5.8-3.2-8.6c-0.6-1.7-3-1.8-3.6,0c-1.8,5.3,0.3,10.1,5.4,12.3c6,2.5,9.1-2.2,11-6.9
					c-1.2-0.3-2.4-0.7-3.6-1c0,0,0,0.1,0,0.1c1.2,0.3,2.4,0.7,3.6,1c1.4-5.7,2.8-11.5,4.3-17.2c0.3-1.1-0.3-2-1.3-2.3
					c-3.1-1.1-6.1-2.2-9.2-3.3c-0.7-0.3-1.8,0.2-2.1,0.9c-2.6,5.3-5.2,10.6-7.8,15.9c-1,2.2,2.1,4,3.2,1.9c1.5-2.7,3-5.3,4.4-8
					c-0.9,0.2-1.7,0.4-2.6,0.7c3.4,1.9,6.2,1.1,9.7,2.3C253.9,255.1,254.9,251.5,252.6,250.7L252.6,250.7z"/>
			</g>
		</g>
		
			<rect x="239.7" y="251.4" transform="matrix(0.9401 0.3409 -0.3409 0.9401 103.1782 -68.0856)" fill="#231F20" width="11.3" height="16.3"/>
	</g>
	<g>
		<g>
			<g>
				<path fill="#231F20" d="M264.4,257.3c3.5-1.2,6.3-0.4,9.7-2.3c-0.9-0.2-1.7-0.4-2.6-0.7c1.5,2.7,3,5.3,4.4,8
					c1.2,2.1,4.3,0.3,3.2-1.9c-2.6-5.3-5.2-10.6-7.8-15.9c-0.3-0.7-1.4-1.1-2.1-0.9c-3.1,1.1-6.1,2.2-9.2,3.3
					c-1,0.4-1.6,1.3-1.3,2.3c1.4,5.7,2.9,11.5,4.3,17.2c1.2-0.3,2.4-0.7,3.6-1c0,0,0-0.1,0-0.1c-1.2,0.3-2.4,0.7-3.6,1
					c2.1,5.3,4.7,8.6,11,6.9c5.4-1.5,7.1-7.5,5.4-12.3c-0.6-1.8-3-1.7-3.6,0c-1.1,2.9-2.1,5.8-3.2,8.6c-1.6,4.4,2.5,10.7,4,14.9
					c0.3-0.7,0.6-1.4,0.9-2.1c-1.7,0.8-3.3,1.5-5,2.3c-1.9,0.9-0.5,4.2,1.4,3.4c3.5-1.3,7.1-2.6,10.6-3.9c2.3-0.8,1.3-4.4-1-3.6
					c-3.5,1.3-7.1,2.6-10.6,3.9c0.5,1.1,1,2.3,1.4,3.4c1.7-0.8,3.3-1.5,5-2.3c0.7-0.3,1.1-1.4,0.9-2.1c-1.4-3.9-5.2-9.7-3.8-13.6
					c1-2.6,2-5.3,2.9-7.9c-1.2,0-2.4,0-3.6,0c1.1,3.1,0.5,6.3-2.8,7.7c-3.5,1.5-5.2-1.4-6.3-4.3c-0.9-2.2-4.5-1.3-3.6,1
					c0,0,0,0.1,0,0.1c0.8,2.2,4.2,1.4,3.6-1c-1.4-5.7-2.9-11.5-4.3-17.2c-0.4,0.8-0.9,1.5-1.3,2.3c3.1-1.1,6.1-2.2,9.2-3.3
					c-0.7-0.3-1.4-0.6-2.1-0.9c2.6,5.3,5.2,10.6,7.8,15.9c1.1-0.6,2.2-1.3,3.2-1.9c-1.5-2.7-3-5.3-4.4-8c-0.5-0.9-1.7-1.2-2.6-0.7
					c-2.8,1.6-5.8,0.9-8.8,1.9C261.1,254.5,262.1,258.1,264.4,257.3L264.4,257.3z"/>
			</g>
		</g>
		
			<rect x="265" y="254.4" transform="matrix(-0.9396 0.3424 -0.3424 -0.9396 614.879 416.558)" fill="#231F20" width="11.3" height="16.3"/>
	</g>
	<g>
		<g>
			<path fill="#231F20" d="M257.8,233.4c-0.1,1.8-0.3,3.7-0.4,5.5c-0.2,2.4,3.6,2.4,3.8,0c0.1-1.8,0.3-3.7,0.4-5.5
				C261.7,231,258,231,257.8,233.4L257.8,233.4z"/>
		</g>
	</g>
	<g>
		<g>
			<path fill="#231F20" d="M262.9,236.6c-0.7,0.8-1.5,1.7-2.2,2.5c-0.7,0.8-0.8,1.9,0,2.7c0.7,0.7,2,0.8,2.7,0
				c0.7-0.8,1.5-1.7,2.2-2.5c0.7-0.8,0.8-1.9,0-2.7C264.9,235.9,263.6,235.8,262.9,236.6L262.9,236.6z"/>
		</g>
	</g>
	<g>
		<g>
			<path fill="#231F20" d="M252.8,237.9c0.6,0.9,1.2,1.9,1.8,2.8c0.6,0.9,1.6,1.2,2.6,0.7c0.8-0.5,1.2-1.7,0.7-2.6
				c-0.6-0.9-1.2-1.9-1.8-2.8c-0.6-0.9-1.6-1.2-2.6-0.7C252.6,235.8,252.2,237.1,252.8,237.9L252.8,237.9z"/>
		</g>
	</g>
	<g>
		<g>
			<path fill="#FFFFFF" d="M247,264.4c-0.4,0.9-1.2,1.5-2.2,0.9c-1.4-0.8-2.7,1.3-1.3,2.2c2,1.2,4.7,0.3,5.6-1.8
				c0.3-0.6,0.2-1.3-0.4-1.7C248.2,263.6,247.2,263.7,247,264.4L247,264.4z"/>
		</g>
	</g>
	<g>
		<g>
			<path fill="#FFFFFF" d="M274.8,265.3c0.3,1-0.1,1.8-1.2,2c-0.7,0.1-1,0.9-0.9,1.5c0.2,0.7,0.9,1,1.5,0.9c2.3-0.4,3.6-2.9,2.9-5.1
				C276.7,263.1,274.3,263.7,274.8,265.3L274.8,265.3z"/>
		</g>
	</g>
</g>
</svg>
