<?xml version="1.0" encoding="utf-8"?>
<!-- Generator: Adobe Illustrator 17.1.0, SVG Export Plug-In . SVG Version: 6.00 Build 0)  -->
<!DOCTYPE svg PUBLIC "-//W3C//DTD SVG 1.1//EN" "http://www.w3.org/Graphics/SVG/1.1/DTD/svg11.dtd">
<svg version="1.1" id="Layer_1" xmlns="http://www.w3.org/2000/svg" xmlns:xlink="http://www.w3.org/1999/xlink" x="0px" y="0px"
	 viewBox="232.3 233 48.4 57.4" enable-background="new 232.3 233 48.4 57.4" xml:space="preserve">
<g opacity="0.5">
	<g>
		<g>
			<path fill="#FFC189" d="M238,290.4c13.6,0,27.3-0.1,40.9-0.1c2.4,0,2.4-3.8,0-3.8c-13.6,0-27.3,0.1-40.9,0.1
				C235.5,286.7,235.5,290.4,238,290.4L238,290.4z"/>
		</g>
	</g>
	<g>
		<g>
			<path fill="#FFC189" d="M240.7,249.5c0,12.5,0,25,0,37.5c0,2.4,3.8,2.4,3.8,0c0-12.5,0-25,0-37.5
				C244.5,247,240.7,247,240.7,249.5L240.7,249.5z"/>
		</g>
	</g>
	<g>
		<g>
			<path fill="#FFC189" d="M272.4,249.5c0,12.5,0,25,0,37.5c0,2.4,3.8,2.4,3.8,0c0-12.5,0-25,0-37.5
				C276.2,247,272.4,247,272.4,249.5L272.4,249.5z"/>
		</g>
	</g>
	<g>
		<g>
			<path fill="#FFC189" d="M246,238.5c-0.2,2.9,0.1,5.9,0,8.8c0,2.4,3.7,2.4,3.8,0c0-2.9-0.2-5.9,0-8.8
				C249.9,236.1,246.1,236.1,246,238.5L246,238.5z"/>
		</g>
	</g>
	<g>
		<g>
			<path fill="#FFC189" d="M243.8,244.3c2.7,0,5.3,0,8,0c2.4,0,2.4-3.8,0-3.8c-2.7,0-5.3,0-8,0C241.4,240.6,241.4,244.3,243.8,244.3
				L243.8,244.3z"/>
		</g>
	</g>
	<g>
		<g>
			<path fill="#FFC189" d="M242.6,251.3c3.5,0,7,0,10.4,0c2.4,0,2.4-3.8,0-3.8c-3.5,0-7,0-10.4,0
				C240.2,247.6,240.2,251.3,242.6,251.3L242.6,251.3z"/>
		</g>
	</g>
	<g>
		<g>
			<path fill="#FFC189" d="M253.7,261.3c3.2,0,6.5,0,9.7,0c2.4,0,2.4-3.8,0-3.8c-3.2,0-6.5,0-9.7,0
				C251.3,257.6,251.3,261.3,253.7,261.3L253.7,261.3z"/>
		</g>
	</g>
	<g>
		<g>
			<path fill="#FFC189" d="M251.5,249.5c0,3.4,0,6.7,0,10.1c0,2.4,3.8,2.4,3.8,0c0-3.4,0-6.7,0-10.1
				C255.2,247,251.5,247,251.5,249.5L251.5,249.5z"/>
		</g>
	</g>
	<g>
		<g>
			<path fill="#FFC189" d="M274.3,247.6c-3.5,0-7,0-10.4,0c-2.4,0-2.4,3.8,0,3.8c3.5,0,7,0,10.4,0
				C276.7,251.3,276.7,247.6,274.3,247.6L274.3,247.6z"/>
		</g>
	</g>
	<g>
		<g>
			<path fill="#FFC189" d="M261.6,249.5c0,3.4,0,6.7,0,10.1c0,2.4,3.8,2.4,3.8,0c0-3.4,0-6.7,0-10.1
				C265.3,247,261.6,247,261.6,249.5L261.6,249.5z"/>
		</g>
	</g>
	<g>
		<g>
			<path fill="#FFC189" d="M267,238.5c-0.2,2.9,0.1,5.9,0,8.8c0,2.4,3.7,2.4,3.8,0c0-2.9-0.2-5.9,0-8.8
				C270.9,236.1,267.1,236.1,267,238.5L267,238.5z"/>
		</g>
	</g>
	<g>
		<g>
			<path fill="#FFC189" d="M264.8,244.3c2.7,0,5.3,0,8,0c2.4,0,2.4-3.8,0-3.8c-2.7,0-5.3,0-8,0C262.4,240.6,262.4,244.3,264.8,244.3
				L264.8,244.3z"/>
		</g>
	</g>
	<g>
		<g>
			<path fill="#FFC189" d="M260.6,268.2c-0.2,2.8-4.2,2.8-4.3,0C256.1,265.4,260.4,265.4,260.6,268.2c0.1,1.6,2.6,1.6,2.5,0
				c-0.1-2.6-2-4.5-4.7-4.7c-2.6-0.1-4.5,2.2-4.7,4.7c-0.1,2.6,2.2,4.5,4.7,4.7c2.6,0.1,4.5-2.2,4.7-4.7
				C263.2,266.6,260.7,266.6,260.6,268.2z"/>
		</g>
	</g>
	<g>
		<g>
			<path fill="#FFC189" d="M256.5,287.6c-0.2-2.2-1.8-8.4,1.7-8.5c4.2-0.2,2.8,6.3,2.8,8.9c0,2.4,3.7,2.4,3.8,0
				c0-5.3,0.8-11.8-6-12.6c-7.2-0.8-6.5,7.6-6,12.2C253,290,256.8,290,256.5,287.6L256.5,287.6z"/>
		</g>
	</g>
	<rect x="243.8" y="251.1" fill="#FFC189" width="11.2" height="35.8"/>
	<rect x="263.5" y="251.1" fill="#FFC189" width="11.2" height="35.8"/>
	<rect x="253.7" y="271.6" fill="#FFC189" width="13.8" height="7"/>
	<rect x="253.7" y="259.5" fill="#FFC189" width="13.8" height="5.3"/>
	<rect x="261" y="262.1" fill="#FFC189" width="3.3" height="11.3"/>
</g>
<g>
	<g>
		<g>
			<path fill="#231F20" d="M234.2,286.7c13.6,0,27.3-0.1,40.9-0.1c2.4,0,2.4-3.8,0-3.8c-13.6,0-27.3,0.1-40.9,0.1
				C231.7,283,231.7,286.7,234.2,286.7L234.2,286.7z"/>
		</g>
	</g>
	<g>
		<g>
			<path fill="#231F20" d="M236.9,245.8c0,12.5,0,25,0,37.5c0,2.4,3.8,2.4,3.8,0c0-12.5,0-25,0-37.5
				C240.7,243.4,236.9,243.4,236.9,245.8L236.9,245.8z"/>
		</g>
	</g>
	<g>
		<g>
			<path fill="#231F20" d="M268.6,245.8c0,12.5,0,25,0,37.5c0,2.4,3.8,2.4,3.8,0c0-12.5,0-25,0-37.5
				C272.3,243.4,268.6,243.4,268.6,245.8L268.6,245.8z"/>
		</g>
	</g>
	<g>
		<g>
			<path fill="#231F20" d="M242.2,234.8c-0.2,2.9,0.1,5.9,0,8.8c0,2.4,3.7,2.4,3.8,0c0-2.9-0.2-5.9,0-8.8
				C246.1,232.4,242.3,232.4,242.2,234.8L242.2,234.8z"/>
		</g>
	</g>
	<g>
		<g>
			<path fill="#231F20" d="M240,240.6c2.7,0,5.3,0,8,0c2.4,0,2.4-3.8,0-3.8c-2.7,0-5.3,0-8,0C237.6,236.9,237.6,240.6,240,240.6
				L240,240.6z"/>
		</g>
	</g>
	<g>
		<g>
			<path fill="#231F20" d="M238.8,247.6c3.5,0,7,0,10.4,0c2.4,0,2.4-3.8,0-3.8c-3.5,0-7,0-10.4,0
				C236.4,243.9,236.4,247.6,238.8,247.6L238.8,247.6z"/>
		</g>
	</g>
	<g>
		<g>
			<path fill="#231F20" d="M249.9,257.6c3.2,0,6.5,0,9.7,0c2.4,0,2.4-3.8,0-3.8c-3.2,0-6.5,0-9.7,0
				C247.5,253.9,247.5,257.6,249.9,257.6L249.9,257.6z"/>
		</g>
	</g>
	<g>
		<g>
			<path fill="#231F20" d="M247.7,245.8c0,3.4,0,6.7,0,10.1c0,2.4,3.8,2.4,3.8,0c0-3.4,0-6.7,0-10.1
				C251.4,243.4,247.7,243.4,247.7,245.8L247.7,245.8z"/>
		</g>
	</g>
	<g>
		<g>
			<path fill="#231F20" d="M270.5,243.9c-3.5,0-7,0-10.4,0c-2.4,0-2.4,3.8,0,3.8c3.5,0,7,0,10.4,0
				C272.9,247.6,272.9,243.9,270.5,243.9L270.5,243.9z"/>
		</g>
	</g>
	<g>
		<g>
			<path fill="#231F20" d="M257.7,245.8c0,3.4,0,6.7,0,10.1c0,2.4,3.8,2.4,3.8,0c0-3.4,0-6.7,0-10.1
				C261.5,243.4,257.7,243.4,257.7,245.8L257.7,245.8z"/>
		</g>
	</g>
	<g>
		<g>
			<path fill="#231F20" d="M263.2,234.8c-0.2,2.9,0.1,5.9,0,8.8c0,2.4,3.7,2.4,3.8,0c0-2.9-0.2-5.9,0-8.8
				C267.1,232.4,263.3,232.4,263.2,234.8L263.2,234.8z"/>
		</g>
	</g>
	<g>
		<g>
			<path fill="#231F20" d="M261,240.6c2.7,0,5.3,0,8,0c2.4,0,2.4-3.8,0-3.8c-2.7,0-5.3,0-8,0C258.6,236.9,258.6,240.6,261,240.6
				L261,240.6z"/>
		</g>
	</g>
	<g>
		<g>
			<path fill="#231F20" d="M256.8,264.5c-0.2,2.8-4.2,2.8-4.3,0C252.3,261.7,256.6,261.7,256.8,264.5c0.1,1.6,2.6,1.6,2.5,0
				c-0.1-2.6-2-4.5-4.7-4.7c-2.6-0.1-4.5,2.2-4.7,4.7c-0.1,2.6,2.2,4.5,4.7,4.7c2.6,0.1,4.5-2.2,4.7-4.7
				C259.4,262.9,256.9,262.9,256.8,264.5z"/>
		</g>
	</g>
	<g>
		<g>
			<path fill="#231F20" d="M252.7,283.9c-0.2-2.2-1.8-8.4,1.7-8.5c4.2-0.2,2.8,6.3,2.8,8.9c0,2.4,3.7,2.4,3.8,0
				c0-5.3,0.8-11.8-6-12.6c-7.2-0.8-6.5,7.6-6,12.2C249.2,286.3,253,286.3,252.7,283.9L252.7,283.9z"/>
		</g>
	</g>
</g>
</svg>
