<?xml version="1.0" encoding="utf-8"?>
<!-- Generator: Adobe Illustrator 17.1.0, SVG Export Plug-In . SVG Version: 6.00 Build 0)  -->
<!DOCTYPE svg PUBLIC "-//W3C//DTD SVG 1.1//EN" "http://www.w3.org/Graphics/SVG/1.1/DTD/svg11.dtd">
<svg version="1.1" id="Layer_1" xmlns="http://www.w3.org/2000/svg" xmlns:xlink="http://www.w3.org/1999/xlink" x="0px" y="0px"
	 viewBox="236.8 230.3 41 54.4" enable-background="new 236.8 230.3 41 54.4" xml:space="preserve">
<g opacity="0.5">
	<g>
		<g>
			<path fill="#FFC189" d="M252.3,236.4c-1.8,1.3-2.1,4.5-0.4,6"/>
			<g>
				<path fill="#FFC189" d="M251.4,234.8c-2.8,2.1-3.4,6.4-0.8,9c1.7,1.7,4.3-0.9,2.7-2.7c-0.7-0.7-0.8-2.4,0-3.1
					c0.8-0.6,1.2-1.6,0.7-2.6C253.5,234.7,252.2,234.2,251.4,234.8L251.4,234.8z"/>
			</g>
		</g>
		<g>
			<path fill="#FFC189" d="M266,242.2c1.8-1.3,2.1-4.5,0.4-6"/>
			<g>
				<path fill="#FFC189" d="M266.9,243.8c2.8-2.1,3.4-6.4,0.8-9c-1.7-1.7-4.3,0.9-2.7,2.7c0.7,0.7,0.8,2.4,0,3.1
					c-0.8,0.6-1.2,1.6-0.7,2.6C264.8,243.9,266.1,244.4,266.9,243.8L266.9,243.8z"/>
			</g>
		</g>
		<g>
			<path fill="#FFC189" d="M259.1,247c1.2-3.5,8.5-7,9.6-1.7c1,4.5-6,5.2-5.5,9.4c0.1,1.2,0.9,2,1.9,2.6"/>
			<g>
				<path fill="#FFC189" d="M260.9,247.5c0.6-1.7,2.8-2.9,4.5-3c0.9-0.1,1.2,0.5,1.5,1.3c0.3,1-0.8,1.8-1.4,2.4
					c-1.5,1.3-3.2,2.4-3.9,4.3c-1,2.6,0.4,4.9,2.5,6.4c2,1.4,3.9-1.9,1.9-3.2c-2.8-2,1.8-4.4,3.1-5.8c1.8-2,2.1-5,0.4-7.2
					c-3.4-4.7-10.6-0.3-12.2,3.9C256.4,248.8,260,249.7,260.9,247.5L260.9,247.5z"/>
			</g>
		</g>
		<g>
			<path fill="#FFC189" d="M258.8,247.7c-0.4-1.3-2.1-3.8-3.4-4.5c-1.1-0.5-3.5-0.7-4.7-0.1c-2,1-2,3.7-0.3,4.9
				c1.7,1.4,3.5,2.6,3.8,5c0.1,0.7,0.2,1.7,0.1,2.4c-0.2,0.9-0.9,1.3-1.4,2.1"/>
			<g>
				<path fill="#FFC189" d="M260.6,247.2c-1.6-4.5-6.7-8.5-11.5-5.3c-1.8,1.2-2.5,4.2-1.2,6.1c1.7,2.6,6.6,4.7,3.7,8.3
					c-1.5,1.9,1.1,4.5,2.7,2.7c2.2-2.8,2.9-6.4,0.4-9.4c-0.6-0.7-5.1-3.9-2.9-4.8c2.5-0.9,4.5,1.4,5.2,3.5
					C257.8,250.5,261.5,249.5,260.6,247.2L260.6,247.2z"/>
			</g>
		</g>
		<g>
			<path fill="#FFC189" d="M253.3,257.2c-1.8,3.5-6.3,4.5-8.5,7.9c-1.3,2-2.3,4.4-2.4,6.8c-0.1,1.4,0.1,2.8,0.1,4.1"/>
			<g>
				<path fill="#FFC189" d="M251.7,256.2c-1.9,3.1-5.8,4.2-7.9,7.1c-2.9,4-3.3,7.9-3.2,12.7c0.1,2.4,3.8,2.4,3.8,0
					c-0.2-4.5,0.2-8.6,3.7-11.8c2.4-2.1,5.1-3.3,6.8-6.1C256.2,256,253,254.2,251.7,256.2L251.7,256.2z"/>
			</g>
		</g>
		<g>
			<path fill="#FFC189" d="M264.9,257.4c1.5,1.8,3.4,3.2,5,4.9c1.6,1.7,3.1,3.5,4.3,5.5c1.6,2.6,1.9,5,1.9,8c0,1.3,0.1,2.7-0.1,4
				c-0.1,0.5-0.5,1.6-0.2,2"/>
			<g>
				<path fill="#FFC189" d="M263.5,258.7c3,3.4,6.5,6.2,9,10c2.7,4,1.2,8.7,1.4,13.1c0.1,2.4,3.9,2.4,3.8,0c-0.2-4.6,0.8-8.8-1-13.2
					c-2.1-5.2-7-8.5-10.5-12.5C264.6,254.2,261.9,256.9,263.5,258.7L263.5,258.7z"/>
			</g>
		</g>
		<g>
			<path fill="#FFC189" d="M242.6,276.7c-0.1,3.7,0.7,5.7,4.9,5c1.4-0.2,3.1-1.8,4.4-1.5c0.6,0.1,0.9,0.7,1.4,0.9
				c1,0.5,2.1,0.7,3.2,0.7c2.1,0.1,4-0.2,5.8-1.3c1.1-0.7,1.1-0.9,2.4-0.1c1.9,1.3,3.5,1.9,5.9,2.1c1.2,0.1,4.3,0.6,5.1-0.6"/>
			<g>
				<path fill="#FFC189" d="M240.7,276.7c0,2.4,0.3,5.8,3.1,6.6c1.8,0.5,3.5,0.4,5.2-0.2c2.6-0.9,2.7-0.6,5.2,0.2
					c1.8,0.6,3.8,0.2,5.6,0c1.1-0.2,2.2-0.8,3.2-1.3c0.7-0.3,2,0.8,2.7,1.2c2.8,1.4,8,2.2,10.7,0.3c2-1.4,0.1-4.6-1.9-3.2
					c-4.6,3.2-9-4.1-13.3-1.5c-2.1,1.3-5.6,1.7-7.7,0.1c-0.4-0.3-1.2-0.7-1.7-0.6c-3,0.3-7.4,3.7-7.4-1.6
					C244.4,274.2,240.7,274.2,240.7,276.7L240.7,276.7z"/>
			</g>
		</g>
	</g>
	<rect x="254" y="247.2" fill="#FFC189" stroke="#FFC189" stroke-width="0.75" stroke-miterlimit="10" width="10.5" height="33.1"/>
	<rect x="260.8" y="260" fill="#FFC189" stroke="#FFC189" stroke-width="0.75" stroke-miterlimit="10" width="8.7" height="20.4"/>
	
		<rect x="268.7" y="269.6" fill="#FFC189" stroke="#FFC189" stroke-width="0.75" stroke-miterlimit="10" width="6.8" height="12.4"/>
	
		<rect x="248.6" y="260.2" fill="#FFC189" stroke="#FFC189" stroke-width="0.75" stroke-miterlimit="10" width="7.7" height="19.2"/>
	<rect x="244" y="265.6" fill="#FFC189" stroke="#FFC189" stroke-width="0.75" stroke-miterlimit="10" width="10" height="13.8"/>
</g>
<g>
	<g>
		<g>
			<path fill="#231F20" d="M247.6,230.8c-2.8,2.1-3.4,6.4-0.8,9c1.7,1.7,4.3-0.9,2.7-2.7c-0.7-0.7-0.8-2.4,0-3.1
				c0.8-0.6,1.2-1.6,0.7-2.6C249.7,230.7,248.4,230.2,247.6,230.8L247.6,230.8z"/>
		</g>
	</g>
	<g>
		<g>
			<path fill="#231F20" d="M263.1,239.8c2.8-2.1,3.4-6.4,0.8-9c-1.7-1.7-4.3,0.9-2.7,2.7c0.7,0.7,0.8,2.4,0,3.1
				c-0.8,0.6-1.2,1.6-0.7,2.6C261,239.9,262.3,240.4,263.1,239.8L263.1,239.8z"/>
		</g>
	</g>
	<g>
		<g>
			<path fill="#231F20" d="M257.1,243.5c0.6-1.7,2.8-2.9,4.5-3c0.9-0.1,1.2,0.5,1.5,1.3c0.3,1-0.8,1.8-1.4,2.4
				c-1.5,1.3-3.2,2.4-3.9,4.3c-1,2.6,0.4,4.9,2.5,6.4c2,1.4,3.9-1.9,1.9-3.2c-2.8-2,1.8-4.4,3.1-5.8c1.8-2,2.1-5,0.4-7.2
				c-3.4-4.7-10.6-0.3-12.2,3.9C252.6,244.8,256.2,245.7,257.1,243.5L257.1,243.5z"/>
		</g>
	</g>
	<g>
		<g>
			<path fill="#231F20" d="M256.8,243.2c-1.6-4.5-6.7-8.5-11.5-5.3c-1.8,1.2-2.5,4.2-1.2,6.1c1.7,2.6,6.6,4.7,3.7,8.3
				c-1.5,1.9,1.1,4.5,2.7,2.7c2.2-2.8,2.9-6.4,0.4-9.4c-0.6-0.7-5.1-3.9-2.9-4.8c2.5-0.9,4.5,1.4,5.2,3.5
				C254,246.5,257.7,245.5,256.8,243.2L256.8,243.2z"/>
		</g>
	</g>
	<g>
		<g>
			<path fill="#231F20" d="M247.9,252.2c-1.9,3.1-5.8,4.2-7.9,7.1c-2.9,4-3.3,7.9-3.2,12.7c0.1,2.4,3.8,2.4,3.8,0
				c-0.2-4.5,0.2-8.6,3.7-11.8c2.4-2.1,5.1-3.3,6.8-6.1C252.4,252,249.2,250.2,247.9,252.2L247.9,252.2z"/>
		</g>
	</g>
	<g>
		<g>
			<path fill="#231F20" d="M259.7,254.7c3,3.4,6.5,6.2,9,10c2.7,4,1.2,8.7,1.4,13.1c0.1,2.4,3.9,2.4,3.8,0c-0.2-4.6,0.8-8.8-1-13.2
				c-2.1-5.2-7-8.5-10.5-12.5C260.8,250.2,258.1,252.9,259.7,254.7L259.7,254.7z"/>
		</g>
	</g>
	<g>
		<g>
			<path fill="#231F20" d="M236.9,272.7c0,2.4,0.3,5.8,3.1,6.6c1.8,0.5,3.5,0.4,5.2-0.2c2.6-0.9,2.7-0.6,5.2,0.2
				c1.8,0.6,3.8,0.2,5.6,0c1.1-0.2,2.2-0.8,3.2-1.3c0.7-0.3,2,0.8,2.7,1.2c2.8,1.4,8,2.2,10.7,0.3c2-1.4,0.1-4.6-1.9-3.2
				c-4.6,3.2-9-4.1-13.3-1.5c-2.1,1.3-5.6,1.7-7.7,0.1c-0.4-0.3-1.2-0.7-1.7-0.6c-3,0.3-7.4,3.7-7.4-1.6
				C240.6,270.2,236.9,270.2,236.9,272.7L236.9,272.7z"/>
		</g>
	</g>
</g>
</svg>
