<?xml version="1.0" encoding="utf-8"?>
<!-- Generator: Adobe Illustrator 17.1.0, SVG Export Plug-In . SVG Version: 6.00 Build 0)  -->
<!DOCTYPE svg PUBLIC "-//W3C//DTD SVG 1.1//EN" "http://www.w3.org/Graphics/SVG/1.1/DTD/svg11.dtd">
<svg version="1.1" id="Layer_1" xmlns="http://www.w3.org/2000/svg" xmlns:xlink="http://www.w3.org/1999/xlink" x="0px" y="0px"
	 viewBox="0 0 57.9 75.6" enable-background="new 0 0 57.9 75.6" xml:space="preserve">
<path fill="#FFC189" d="M24.4,4.5v55.8L7.7,43.5c-1.8-1.8-4.6-1.8-6.4,0c-1.8,1.8-1.8,4.6,0,6.4l24.4,24.4c0.8,0.8,2,1.3,3.2,1.3
	s2.3-0.5,3.2-1.3l24.4-24.4c0.9-0.9,1.3-2,1.3-3.2s-0.4-2.3-1.3-3.2c-1.8-1.8-4.6-1.8-6.4,0L33.4,60.3V4.5c0-2.5-2-4.5-4.5-4.5
	C26.4,0,24.4,2,24.4,4.5z"/>
</svg>
